<svg t="1604408978626" viewBox="0 0 1024 1024" version="1.1" xmlns="http://www.w3.org/2000/svg" p-id="6813" width="16" height="16"><path d="M192 416h64v64h-64zM336 416h64v64h-64zM480 416h64v64h-64zM624 416h64v64h-64zM768 416h64v64h-64zM192 576h64v64h-64zM336 576h64v64h-64zM480 576h64v64h-64zM624 576h64v64h-64zM768 576h64v64h-64zM192 736h64v64h-64zM336 736h64v64h-64zM480 736h64v64h-64zM624 736h64v64h-64zM768 736h64v64h-64z" fill="#3FCD90" p-id="6814"></path><path d="M784 64v64h112v128H128V128h112v80h64V64H64v896h896V64zM128 896V320h768v576z" fill="#3FCD90" p-id="6815"></path><path d="M720 208h64V64H304v64h416v80z" fill="#3FCD90" p-id="6816"></path></svg>