<svg t="1604576663951" class="icon" viewBox="0 0 1024 1024" version="1.1" xmlns="http://www.w3.org/2000/svg" p-id="3327" width="14" height="14"><path d="M819.838076 64.006a259.838376 259.838376 0 0 1 24.959844 55.039656 2145.906588 2145.906588 0 0 1 99.19938 429.437316H583.039556l21.759864 81.919488c51.839676 191.9988 28.159824 271.9983 8.959944 303.358104a69.759564 69.759564 0 0 1-20.479872 22.39986 108.159324 108.159324 0 0 0 0-10.879932c-4.479972-174.078912-143.359104-311.038056-202.878732-362.237736V76.165924A81.279492 81.279492 0 0 1 426.880532 64.006h393.59754m15.9999-63.9996h-409.59744C400.0007 0.0064 325.121168 19.20628 325.121168 72.965944v540.79662S527.9999 763.521628 527.9999 954.240436c5.759964 10.239936-10.239936 69.759564 63.9996 69.759564 0 0 178.558884-19.839876 72.959544-410.237436h276.478272a63.9996 63.9996 0 0 0 63.9996-63.9996s0-102.39936-101.119368-447.9972c0 0-31.359804-101.119368-69.759564-101.119368zM190.722008 64.006v485.756964H80.0027L112.0025 64.006h78.719508m34.559784-63.9996h-140.79912a33.919788 33.919788 0 0 0-34.559784 34.559784L16.0031 580.482772a33.279792 33.279792 0 0 0 33.919788 33.279792h163.838976a40.319748 40.319748 0 0 0 41.59974-41.59974V23.046256s0-23.039856-29.439816-23.039856z" p-id="3328" fill="#58BC7F"></path></svg>