<svg t="1604306059875" viewBox="0 0 1024 1024" version="1.1" xmlns="http://www.w3.org/2000/svg" p-id="3945" width="15" height="15"><path d="M246.236875 1024h-96.905423A124.523469 124.523469 0 0 1 25.001793 899.573436v-484.527119A124.523469 124.523469 0 0 1 149.331452 290.716659h96.905423a27.52114 27.52114 0 0 1 27.521141 27.424235v678.337966a27.52114 27.52114 0 0 1-27.521141 27.52114z m-96.905423-678.337966a69.481189 69.481189 0 0 0-69.384284 69.384283v484.527119a69.481189 69.481189 0 0 0 69.384284 69.481189H218.812641V345.662034z" p-id="3946"></path><path d="M666.90332 1024H412.623488a27.52114 27.52114 0 0 1 0-54.945375h254.279832a69.384283 69.384283 0 0 0 63.860674-42.056954l207.571418-484.527119a69.384283 69.384283 0 0 0-63.763769-96.905423H481.717055a27.52114 27.52114 0 1 1 0-54.945376 69.481189 69.481189 0 0 0 69.384283-69.481188v-96.905424a69.481189 69.481189 0 0 0-69.384283-69.384284h-13.76057a69.578094 69.578094 0 0 0-60.372079 35.079764l-137.411891 242.263559a27.52114 27.52114 0 0 1-47.774374-27.230424L359.810032 62.892008A124.620375 124.620375 0 0 1 467.956485 0.000388h13.76057A124.426564 124.426564 0 0 1 606.434335 124.330046v96.905424A123.166794 123.166794 0 0 1 584.824426 290.716659h289.747217a124.426564 124.426564 0 0 1 114.3484 173.363803L780.864098 948.60758a124.232753 124.232753 0 0 1-113.960778 75.39242z" p-id="3947"></path></svg>